<svg width="226" height="76" viewBox="0 0 226 76" fill="none" xmlns="http://www.w3.org/2000/svg">
<mask id="mask0_1_50" style="mask-type:luminance" maskUnits="userSpaceOnUse" x="0" y="0" width="226" height="76">
<path d="M0.691254 0.84375H225.929V75.0335H0.691254V0.84375Z" fill="white"/>
</mask>
<g mask="url(#mask0_1_50)">
<path d="M0.691254 0.84375H225.929V75.1059H0.691254V0.84375Z" stroke="black" stroke-width="6"/>
</g>
<mask id="mask1_1_50" style="mask-type:luminance" maskUnits="userSpaceOnUse" x="6" y="7" width="107" height="61">
<path d="M6.039 7H112.576V67.3033H6.039V7Z" fill="white"/>
</mask>
<g mask="url(#mask1_1_50)">
<path d="M6.039 7H112.495V67.3033H6.039V7Z" fill="#14FF00"/>
</g>
<path d="M14.8563 44.6464H18.6994V40.7099H20.4645C23.8503 40.7099 25.9985 38.3633 25.9985 34.7006C25.9985 31.0378 23.8503 28.7153 20.4645 28.7153H14.8563V44.6464ZM18.659 36.862V32.5834H20.1048C21.3791 32.5834 22.1188 33.4045 22.1188 34.7248C22.1188 36.0651 21.3791 36.862 20.1048 36.862H18.659Z" fill="white"/>
<path d="M29.2811 44.6464H38.6175V40.8911H33.0835V38.4318H37.8953V34.7448H33.0835V32.4264H38.4093V28.7153H29.2811V44.6464Z" fill="white"/>
<path d="M42.3181 44.6464H46.1205V36.5682L48.6898 40.8669H51.1776L53.7259 36.5883V44.6464H57.529V28.7153H54.4118L49.9236 36.2945L45.4547 28.7153H42.3181V44.6464Z" fill="white"/>
<path d="M68.2646 44.9883C72.5043 44.9883 75.5069 41.551 75.5069 36.6807C75.5069 31.8105 72.5043 28.373 68.2646 28.373C64.0241 28.373 61.0182 31.8105 61.0182 36.6807C61.0182 41.551 64.0241 44.9883 68.2646 44.9883ZM64.9158 36.6807C64.9158 34.2898 66.3037 32.6275 68.2646 32.6275C70.2416 32.6275 71.6094 34.2898 71.6094 36.6807C71.6094 39.0716 70.2416 40.7299 68.2646 40.7299C66.3037 40.7299 64.9158 39.0716 64.9158 36.6807Z" fill="white"/>
<path d="M86.9639 44.6464H90.8034V28.7153H86.9639V34.4268H82.8582V28.7153H79.0155V44.6464H82.8582V38.6612H86.9639V44.6464Z" fill="white"/>
<path d="M98.2321 44.6464H102.052V32.9698H106.104V28.7153H94.1812V32.9698H98.2321V44.6464Z" fill="white"/>
<path d="M134.32 47.248H139.004V32.931H143.97V27.7146H129.354V32.931H134.32V47.248Z" fill="black"/>
<path d="M146.348 47.248H157.793V42.6434H151.011V39.6286H156.909V35.1086H151.011V32.2628H157.538V27.7146H146.348V47.248Z" fill="black"/>
<path d="M170.311 47.248H175.022V27.7146H170.311V34.7181H165.278V27.7146H160.567V47.248H165.278V39.9104H170.311V47.248Z" fill="black"/>
<path d="M182.363 47.248H187.047V32.931H192.013V27.7146H177.397V32.931H182.363V47.248Z" fill="black"/>
<path d="M192.784 47.248H197.77L198.658 44.4869H204.229L205.114 47.248H210.126L203.785 27.7146H199.122L192.784 47.248ZM199.636 40.3572L201.456 34.2996L203.274 40.3572H199.636Z" fill="black"/>
</svg>
